<?xml version="1.0" encoding="us-ascii" standalone="no"?><svg xmlns="http://www.w3.org/2000/svg" xmlns:xlink="http://www.w3.org/1999/xlink" contentStyleType="text/css" height="509px" preserveAspectRatio="none" style="width:663px;height:509px;background:#FFFFFF;" version="1.1" viewBox="0 0 663 509" width="663px" zoomAndPan="magnify"><defs/><g><!--cluster Static Website--><g id="cluster_Static Website"><polygon fill="none" points="85.5,165.5,95.5,155.5,646.5,155.5,646.5,482,636.5,492,85.5,492,85.5,165.5" style="stroke:#181818;stroke-width:1.0;"/><line style="stroke:#181818;stroke-width:1.0;" x1="636.5" x2="646.5" y1="165.5" y2="155.5"/><line style="stroke:#181818;stroke-width:1.0;" x1="85.5" x2="636.5" y1="165.5" y2="165.5"/><line style="stroke:#181818;stroke-width:1.0;" x1="636.5" x2="636.5" y1="165.5" y2="492"/><text fill="#000000" font-family="sans-serif" font-size="14" font-weight="bold" lengthAdjust="spacing" textLength="100" x="312" y="183.0332">Static Website</text></g><!--cluster Categories--><g id="cluster_Categories"><path d="M284,212.5 L362,212.5 A3.75,3.75 0 0 1 364.5,215 L371.5,236.1094 L612,236.1094 A2.5,2.5 0 0 1 614.5,238.6094 L614.5,457.5 A2.5,2.5 0 0 1 612,460 L284,460 A2.5,2.5 0 0 1 281.5,457.5 L281.5,215 A2.5,2.5 0 0 1 284,212.5 " fill="none" style="stroke:#000000;stroke-width:1.5;"/><line style="stroke:#000000;stroke-width:1.5;" x1="281.5" x2="371.5" y1="236.1094" y2="236.1094"/><text fill="#000000" font-family="sans-serif" font-size="14" font-weight="bold" lengthAdjust="spacing" textLength="77" x="285.5" y="229.0332">Categories</text></g><!--entity SSG--><g id="elem_SSG"><rect fill="#F1F1F1" height="47.6094" rx="2.5" ry="2.5" style="stroke:#181818;stroke-width:0.5;" width="148" x="117.5" y="245"/><rect fill="#F1F1F1" height="10" style="stroke:#181818;stroke-width:0.5;" width="15" x="245.5" y="250"/><rect fill="#F1F1F1" height="2" style="stroke:#181818;stroke-width:0.5;" width="4" x="243.5" y="252"/><rect fill="#F1F1F1" height="2" style="stroke:#181818;stroke-width:0.5;" width="4" x="243.5" y="256"/><text fill="#000000" font-family="sans-serif" font-size="14" lengthAdjust="spacing" textLength="108" x="132.5" y="279.5332">SSG (e.g., Hugo)</text></g><!--entity Sights--><g id="elem_Sights"><path d="M316,248.5 L373,248.5 A3.75,3.75 0 0 1 375.5,251 L382.5,272.1094 L397,272.1094 A2.5,2.5 0 0 1 399.5,274.6094 L399.5,286.6094 A2.5,2.5 0 0 1 397,289.1094 L316,289.1094 A2.5,2.5 0 0 1 313.5,286.6094 L313.5,251 A2.5,2.5 0 0 1 316,248.5 " fill="#F1F1F1" style="stroke:#181818;stroke-width:0.5;"/><line style="stroke:#181818;stroke-width:0.5;" x1="313.5" x2="382.5" y1="272.1094" y2="272.1094"/><text fill="#000000" font-family="sans-serif" font-size="14" font-weight="bold" lengthAdjust="spacing" textLength="44" x="323.5" y="266.0332">Sights</text></g><!--entity Restaurants--><g id="elem_Restaurants"><path d="M437.5,248.5 L535.5,248.5 A3.75,3.75 0 0 1 538,251 L545,272.1094 L559.5,272.1094 A2.5,2.5 0 0 1 562,274.6094 L562,286.6094 A2.5,2.5 0 0 1 559.5,289.1094 L437.5,289.1094 A2.5,2.5 0 0 1 435,286.6094 L435,251 A2.5,2.5 0 0 1 437.5,248.5 " fill="#F1F1F1" style="stroke:#181818;stroke-width:0.5;"/><line style="stroke:#181818;stroke-width:0.5;" x1="435" x2="545" y1="272.1094" y2="272.1094"/><text fill="#000000" font-family="sans-serif" font-size="14" font-weight="bold" lengthAdjust="spacing" textLength="85" x="445" y="266.0332">Restaurants</text></g><!--entity Navigation--><g id="elem_Navigation"><path d="M300.5,394.5 L388.5,394.5 A3.75,3.75 0 0 1 391,397 L398,418.1094 L412.5,418.1094 A2.5,2.5 0 0 1 415,420.6094 L415,432.6094 A2.5,2.5 0 0 1 412.5,435.1094 L300.5,435.1094 A2.5,2.5 0 0 1 298,432.6094 L298,397 A2.5,2.5 0 0 1 300.5,394.5 " fill="#F1F1F1" style="stroke:#181818;stroke-width:0.5;"/><line style="stroke:#181818;stroke-width:0.5;" x1="298" x2="398" y1="418.1094" y2="418.1094"/><text fill="#000000" font-family="sans-serif" font-size="14" font-weight="bold" lengthAdjust="spacing" textLength="75" x="308" y="412.0332">Navigation</text></g><!--entity OptionalToVisit--><g id="elem_OptionalToVisit"><path d="M453,386 L572,386 A3.75,3.75 0 0 1 574.5,388.5 L581.5,409.6094 L596,409.6094 A2.5,2.5 0 0 1 598.5,412.1094 L598.5,441.7188 A2.5,2.5 0 0 1 596,444.2188 L453,444.2188 A2.5,2.5 0 0 1 450.5,441.7188 L450.5,388.5 A2.5,2.5 0 0 1 453,386 " fill="#F1F1F1" style="stroke:#181818;stroke-width:0.5;"/><line style="stroke:#181818;stroke-width:0.5;" x1="450.5" x2="581.5" y1="409.6094" y2="409.6094"/><text fill="#000000" font-family="sans-serif" font-size="14" font-weight="bold" lengthAdjust="spacing" textLength="106" x="460.5" y="403.5332">OptionalToVisit</text><text fill="#000000" font-family="sans-serif" font-size="14" lengthAdjust="spacing" textLength="99" x="460.5" y="431.1426">Optional to Visit</text></g><!--entity User--><g id="elem_User"><ellipse cx="20.5" cy="238.5" fill="#F1F1F1" rx="8" ry="8" style="stroke:#181818;stroke-width:0.5;"/><path d="M20.5,246.5 L20.5,273.5 M7.5,254.5 L33.5,254.5 M20.5,273.5 L7.5,288.5 M20.5,273.5 L33.5,288.5 " fill="none" style="stroke:#181818;stroke-width:0.5;"/><text fill="#000000" font-family="sans-serif" font-size="14" lengthAdjust="spacing" textLength="29" x="6" y="304.5332">User</text></g><!--entity Owner--><g id="elem_Owner"><ellipse cx="191.5" cy="14" fill="#F1F1F1" rx="8" ry="8" style="stroke:#181818;stroke-width:0.5;"/><path d="M191.5,22 L191.5,49 M178.5,30 L204.5,30 M191.5,49 L178.5,64 M191.5,49 L204.5,64 " fill="none" style="stroke:#181818;stroke-width:0.5;"/><text fill="#000000" font-family="sans-serif" font-size="14" lengthAdjust="spacing" textLength="25" x="179" y="80.0332">You</text></g><!--link User to Static Website--><g id="link_User_Static Website"><path d="M18.1,308.07 C18.59,323.65 21.13,341.41 28.5,356 C36.95,372.74 52.465,386.87 66.2175,396.9913 C73.0938,402.0519 79.5294,406.1103 84.4209,408.9917 C84.7267,409.1718 79.8414,406.328 80.1348,406.4988 " fill="none" id="User-to-Static Website" style="stroke:#181818;stroke-width:1.0;"/><polygon fill="#181818" points="85.3197,409.5181,79.5552,401.5325,80.999,407.002,75.5294,408.4458,85.3197,409.5181" style="stroke:#181818;stroke-width:1.0;"/><text fill="#000000" font-family="sans-serif" font-size="13" lengthAdjust="spacing" textLength="71" x="29.5" y="352.4951">Access Site</text></g><!--link Owner to SSG--><g id="link_Owner_SSG"><path d="M191.5,83.75 C191.5,130.09 191.5,200.7 191.5,238.88 " fill="none" id="Owner-to-SSG" style="stroke:#181818;stroke-width:1.0;"/><polygon fill="#181818" points="191.5,244.88,195.5,235.88,191.5,239.88,187.5,235.88,191.5,244.88" style="stroke:#181818;stroke-width:1.0;"/><text fill="#000000" font-family="sans-serif" font-size="13" lengthAdjust="spacing" textLength="158" x="192.5" y="127.9951">Writes Content (Markdown)</text></g><!--link SSG to Static Website--><g id="link_SSG_Static Website"><path d="M175.75,293.14 C148.49,333.21 98.575,406.5392 96.915,408.9792 " fill="none" id="SSG-to-Static Website" style="stroke:#181818;stroke-width:1.0;"/><polygon fill="#181818" points="93.54,413.94,101.9097,408.7488,96.3525,409.806,95.2953,404.2488,93.54,413.94" style="stroke:#181818;stroke-width:1.0;"/><text fill="#000000" font-family="sans-serif" font-size="13" lengthAdjust="spacing" textLength="98" x="143.5" y="352.4951">Generates HTML</text></g><!--SRC=[TP2nRa8n34NtV8ML2QJ21p1KGWmmb2BnAAYZ6wmqeesV4hyoLFnxdG02zDHCzlNnLNpH2ITuovGCrd9rZ9G0CzXtxgo9l2UmZQ041plwo478mgy1VOw_MuuKHO5c3WCQ-_4JB3hFGriSLAnSY-w0NcrcAEGv1SfNYuTn4_odvFDgBVl8ch9Wbp1UkBk-3x_YJ_3wSOwLlRLzTDKM7Rz06BP1ZwmRLtN3LQjh9tCofkG5ez5pBva9sAbpbCi5sffpceNKC7IuIofdc76KajjWYUcmvsCSMbCY_CToJkg2PN6nMRxOFm00]--></g></svg>